<?xml version="1.0" encoding="utf-8"?>
<!-- Generator: Adobe Illustrator 24.0.2, SVG Export Plug-In . SVG Version: 6.00 Build 0)  -->
<svg version="1.0" id="Layer_1" xmlns="http://www.w3.org/2000/svg" xmlns:xlink="http://www.w3.org/1999/xlink" x="0px" y="0px"
	 viewBox="90 80 120 120" enable-background="new 90 80 120 120" xml:space="preserve">
<g>
	<path fill-rule="evenodd" clip-rule="evenodd" fill="#C12038" d="M147.78,84.94c1.6,0.18,3.2,0.31,4.78,0.53
		c14.05,2.01,25.68,8.42,34.91,19.2c0.11,0.13,0.2,0.26,0.46,0.6c-1.35-0.19-2.5-0.29-3.62-0.53c-5.34-1.14-10.75-1.84-16.19-2.32
		c-3.2-0.28-6.42-0.43-9.62-0.69c-0.67-0.05-0.75,0.33-0.9,0.77c-2.36,7.08-4.72,14.15-7.08,21.22c-2.23,6.7-4.45,13.4-6.67,20.1
		c-0.1,0.29-0.18,0.59-0.29,0.98c1.62,0.17,3.15,0.32,4.68,0.51c7.08,0.88,14.1,2.03,20.73,4.82c3.45,1.45,6.65,3.3,8.98,6.32
		c4.33,5.62,2.95,13.11-3.1,17.1c-5.35,3.53-13.13,3.23-17.89-0.81c-1.16-0.99-2.12-2.26-2.99-3.53c-2.07-3-4.02-6.08-6.03-9.13
		c-0.57-0.86-1.03-0.97-1.83-0.3c-0.9,0.76-1.72,1.61-2.57,2.42c-0.94,0.89-1.87,1.79-2.8,2.68c-0.81,0.78-0.94,1.36-0.5,2.4
		c1.34,3.14,2.72,6.27,4.02,9.43c0.33,0.79,0.89,1.19,1.63,1.38c2.17,0.53,4.34,1.11,6.54,1.5c4.2,0.73,8.44,1.09,12.7,0.86
		c8.04-0.43,15.24-3.13,21.44-8.33c5.35-4.48,8.28-10.27,9.08-17.15c0.74-6.34-0.28-12.32-4.07-17.62
		c-2.45-3.43-5.66-5.99-9.38-7.94c-5.23-2.74-10.87-4.15-16.67-4.95c-2.42-0.33-4.85-0.5-7.28-0.74c-0.16-0.02-0.32-0.08-0.57-0.14
		c0.23-0.78,0.44-1.51,0.66-2.24c0.55-1.75,1.13-3.5,1.64-5.26c0.17-0.58,0.43-0.75,1.03-0.71c6.08,0.4,12.16,0.72,18.23,1.16
		c2.89,0.21,5.77,0.6,8.65,0.94c1.18,0.14,1.18,0.16,1.39-0.98c0.41-2.2,0.82-4.4,1.24-6.6c0.04-0.22,0.12-0.44,0.3-0.66
		c9.59,14.89,12.16,30.84,6.76,47.8c-6.51,20.44-24.13,34.86-44.74,37.5c-18.99,2.43-35.14-3.62-48.33-17.58
		c10.92,1.75,21.89,2.64,32.97,2.99c0-1.23,0.03-2.37-0.03-3.5c-0.01-0.16-0.47-0.39-0.74-0.43c-2.47-0.37-4.94-0.71-7.4-1.07
		c-0.34-0.05-0.65-0.21-0.99-0.3c-1.9-0.46-2.73-1.76-2.83-3.62c-0.15-2.67-0.36-5.33-0.42-8c-0.18-8.3-0.3-16.61-0.42-24.91
		c-0.03-1.75,0.09-3.5,0.09-5.26c0-0.63,0.17-0.85,0.82-0.85c3.56,0,7.13-0.03,10.69-0.11c0.69-0.01,1.42-0.18,2.06-0.44
		c1.61-0.68,3.19-1.44,4.77-2.2c0.23-0.11,0.51-0.42,0.52-0.64c0.05-1.29,0.02-2.58,0.02-4.06c-6.19,0.09-12.38,0.18-18.65,0.28
		c0-0.68-0.03-1.3,0-1.92c0.21-4.33,0.29-8.67,0.69-12.99c0.33-3.62,2.71-6.01,7.23-5.07c2.99,0.62,5.72,1.85,8.44,3.16
		c1.09,0.52,2.15,1.1,3.24,1.61c1.77,0.82,2.67,0.44,3.47-0.7c0.69-0.98,1.56-1.84,2.34-2.76c0.75-0.9,0.67-1.53-0.25-2.24
		c-1.39-1.07-2.84-2.07-4.14-3.23c-1.96-1.75-4.23-2.45-6.8-2.41c-9.62,0.15-18.49,2.7-26.24,8.55c-3.6,2.72-6.48,6.09-7.7,10.52
		c-0.61,2.22-0.69,4.58-0.99,6.88c-0.07,0.54-0.1,1.08-0.15,1.7c-1.47,0.13-2.89,0.26-4.31,0.39c-0.74,0.07-1.49,0.19-2.23,0.17
		c-0.84-0.02-1.17,0.27-1.19,1.13c-0.04,1.77-0.16,3.54-0.26,5.42c2.59-0.12,5.07-0.24,7.56-0.36c0,1.68-0.02,3.22,0,4.76
		c0.06,5.11,0.01,10.23,0.25,15.34c0.25,5.45,0.78,10.88,1.19,16.33c0.03,0.34,0.02,0.69,0.01,1.03c-0.03,1.29-0.42,1.79-1.68,2.13
		c-0.14,0.04-0.28,0.07-0.42,0.1c-1.49,0.41-2.44,0.02-3.36-1.39c-3.4-5.2-6.02-10.73-7.61-16.73c-1.16-4.39-1.72-8.85-1.77-13.42
		c-0.07-6.1,0.59-12.07,2.62-17.8c7.14-20.14,21.19-32.53,42.09-37.06c2.26-0.49,4.61-0.6,6.92-0.89c0.28-0.04,0.56-0.1,0.84-0.15
		C144.45,84.94,146.11,84.94,147.78,84.94z"/>
	<path fill-rule="evenodd" clip-rule="evenodd" d="M205.54,167.78c2.36,0.01,4.17,1.85,4.15,4.23c-0.02,2.27-1.88,4.08-4.22,4.08
		c-2.32,0-4.1-1.82-4.09-4.18C201.39,169.56,203.19,167.77,205.54,167.78z M209.05,171.97c0.01-2.03-1.59-3.66-3.56-3.64
		c-1.95,0.02-3.55,1.64-3.54,3.6c0,1.97,1.59,3.58,3.54,3.58C207.47,175.52,209.04,173.96,209.05,171.97z"/>
	<path fill-rule="evenodd" clip-rule="evenodd" fill="#FFFFFF" d="M209.05,171.97c-0.01,1.98-1.58,3.55-3.56,3.54
		c-1.95-0.01-3.54-1.61-3.54-3.58c0-1.96,1.6-3.58,3.54-3.6C207.46,168.32,209.06,169.95,209.05,171.97z M206.84,171.95
		c0.45-0.27,0.72-0.82,0.44-1.55c-0.27-0.69-0.89-0.74-1.5-0.76c-0.62-0.02-1.24,0-1.93,0c0,1.44-0.01,2.76,0.02,4.07
		c0,0.17,0.26,0.33,0.4,0.49c0.13-0.18,0.34-0.35,0.36-0.54c0.06-0.41,0.02-0.83,0.02-1.23c1.57-0.1,1.65-0.02,1.96,1.36
		c0.04,0.19,0.33,0.32,0.5,0.48c0.11-0.08,0.21-0.15,0.32-0.23C207.24,173.37,207.05,172.71,206.84,171.95z"/>
	<path fill-rule="evenodd" clip-rule="evenodd" d="M206.84,171.95c0.22,0.76,0.41,1.43,0.59,2.09c-0.11,0.08-0.21,0.15-0.32,0.23
		c-0.17-0.16-0.46-0.29-0.5-0.48c-0.31-1.38-0.39-1.46-1.96-1.36c0,0.4,0.04,0.83-0.02,1.23c-0.03,0.19-0.24,0.36-0.36,0.54
		c-0.14-0.16-0.4-0.32-0.4-0.49c-0.03-1.31-0.02-2.63-0.02-4.07c0.69,0,1.31-0.02,1.93,0c0.61,0.02,1.24,0.07,1.5,0.76
		C207.56,171.12,207.29,171.68,206.84,171.95z M204.7,169.97c0,0.8,0,1.29,0,2.06c0.68-0.24,1.25-0.4,1.76-0.67
		c0.11-0.06,0.11-0.69,0-0.75C205.97,170.35,205.41,170.21,204.7,169.97z"/>
	<path fill-rule="evenodd" clip-rule="evenodd" fill="#FFFFFF" d="M204.7,169.97c0.71,0.24,1.26,0.39,1.76,0.64
		c0.11,0.06,0.11,0.69,0,0.75c-0.51,0.27-1.08,0.43-1.76,0.67C204.7,171.26,204.7,170.76,204.7,169.97z"/>
</g>
</svg>
