<svg width="54" height="54" fill="none" version="1.1" xmlns="http://www.w3.org/2000/svg">
  <path fill-rule="evenodd" clip-rule="evenodd"
    d="M38.424 10.527c2.424 1.435 5.244 1.88 7.965 1.385 5.393-.692 9.301 5.195 6.53 9.895-2.671 4.75-9.746 4.255-11.823-.742C36.198 8.4 18.09 8.4 13.143 21.065c-2.028 4.997-9.152 5.492-11.824.742-2.721-4.7 1.187-10.587 6.53-9.895 2.721.495 5.541 0 7.966-1.385 2.473-1.385 4.254-3.562 5.194-6.184 2.177-5.392 10.043-5.392 12.22 0 .94 2.573 2.77 4.8 5.195 6.184zm-11.28 6.828c5.393 0 8.559 6.283 5.244 10.636-1.78 2.078-2.77 4.75-2.77 7.57 0 2.77.99 5.442 2.77 7.57 3.364 4.353.149 10.685-5.244 10.636-5.393 0-8.559-6.283-5.244-10.637 1.78-2.078 2.77-4.75 2.77-7.57 0-2.77-.99-5.441-2.77-7.569-3.364-4.353-.149-10.686 5.244-10.636z"
    fill="#f50" stroke-width="1.628" />
</svg>
