<?xml version="1.0" encoding="UTF-8"?>
<svg id="Ampere_Computing_Logo" version="1.1" height="1355.8" width="2560.7" viewBox="0 0 2560.7 1355.8" xmlns="http://www.w3.org/2000/svg" xmlns:cc="http://creativecommons.org/ns#" xmlns:dc="http://purl.org/dc/elements/1.1/" xmlns:rdf="http://www.w3.org/1999/02/22-rdf-syntax-ns#">
  <metadata>
    <rdf:RDF>
      <cc:Work rdf:about="">
        <dc:format>image/svg+xml</dc:format>
        <dc:type rdf:resource="http://purl.org/dc/dcmitype/StillImage"/>
      </cc:Work>
    </rdf:RDF>
  </metadata>
  <g id="Logo">
    <path id="Symbol" d="m700.02 772.52c36.628-65.823 91.242-131.33 151.61-181.85 97.079-81.238 214.4-132.95 337.8-148.9 6.88-0.888 13.02-2.152 13.65-2.809s53.93-99.865 118.43-220.46c64.51-120.6 117.61-218.92 117.99-218.5 0.64 0.69458 409.72 765.01 414.81 775.02l2.16 4.25h-33.48-33.47l-8.2-12.25c-38.13-57.023-88.48-110.07-143.39-151.08-82.18-61.379-175.44-99.925-277.26-114.6-7.85-1.131-18.09-2.35-22.75-2.709-4.67-0.358-8.49-0.953-8.49-1.322 0-0.591 28.78-55.009 29.55-55.877 0.53-0.602 29.44 3.902 44.95 7.004 92.09 18.422 175.71 54.009 251.19 106.9 13.59 9.525 18.31 11.702 18.31 8.446 0-1.606-230.44-433.14-232.44-435.29-0.66-0.708-1.88-1.029-2.7-0.713s-79.45 146.3-174.73 324.41c-95.27 178.11-173.77 324.58-174.43 325.48-1.07 1.47-4.6 1.611-34.33 1.373l-33.13-0.265 67.95-127c81.9-153.07 76.36-142.38 74.56-144.18-1.2-1.208-3.04-1.053-13.01 1.103-50.7 10.961-93.81 25.907-140.24 48.614-26.006 12.72-42.457 22.153-66.998 38.418-67.616 44.812-124.18 101.18-168.86 168.28l-10.145 15.237-68.672 0.026z" fill="#ef3f22"/>
    <path id="Lettering" d="m0.01688 1354.6c3.9941-10 148.39-329.46 149.15-329.99 0.586-0.4 14.398-0.74 30.693-0.75 22.498-0.01 29.877 0.29 30.665 1.24 0.79 0.95 141.13 311.83 147.85 327.51l1.398 3.27-30.584-0.27-30.585-0.26-20.369-46.35c-11.203-25.49-20.661-46.64-21.018-47-1.039-1.04-150.96-1.3-153.62-0.27-1.94 0.75-6.0131 9.26-22.748 47.52l-20.384 46.6h-30.472c-23.978 0-30.366-0.27-29.973-1.25zm235.31-143.13c0.291-0.75-11.794-29.89-26.854-64.75-21.906-50.7-27.746-63.37-29.207-63.37-1.467 0-7.116 12.49-28.703 63.46-14.782 34.91-26.654 64.05-26.383 64.75 0.757 1.97 110.39 1.89 111.15-0.09zm243.87 143.13c-0.261-0.69-0.359-75.28-0.218-165.75l0.257-164.5 35.617-0.26c27.723-0.21 35.848 0.01 36.659 1 0.574 0.69 28.825 53.91 62.78 118.26s62.193 117.3 62.75 117.66 1.503 0.46 2.103 0.22c0.6-0.23 28.507-52.4 62.016-115.93 33.509-63.52 61.743-116.84 62.743-118.49l1.818-2.99 35.757 0.27 35.757 0.26v165.5 165.5l-26.75 0.27-26.75 0.26-0.015-123.26c-0.01-69.62-0.4-123.88-0.899-124.67-0.487-0.76-1.512-1.15-2.28-0.86-0.767 0.3-27.786 49.98-60.042 110.4l-58.646 109.86h-23.615-23.615l-58.648-109.86c-32.256-60.42-59.276-110.1-60.044-110.4-0.769-0.29-1.796 0.1-2.282 0.86-0.499 0.79-0.89 55.04-0.899 124.65l-0.015 123.25h-26.532c-20.304 0-26.642-0.29-27.006-1.25zm570 0c-0.26-0.69-0.36-75.28-0.22-165.75l0.26-164.5 92.5 0.03c83.3 0.02 93.62 0.2 103.77 1.78 38.4 6 63.33 22.13 75.74 49 9.87 21.36 11.82 51.36 5.08 77.94-8.23 32.45-30.45 56.06-62.16 66.06-19.04 6-19.14 6.01-92.93 6.62l-68 0.57-0.26 64.75-0.25 64.75h-26.53c-20.3 0-26.63-0.29-27-1.25zm189.73-179.49c9.19-2.57 12.59-4.21 19.65-9.47 10.66-7.96 16.86-21.63 17.82-39.29 1.44-26.46-9.41-44.28-31.51-51.72-6.58-2.22-7.33-2.25-72.99-2.56-49.56-0.23-66.7-0.02-67.75 0.86-1.96 1.62-2.12 101.81-0.16 103.77 0.98 0.99 14.74 1.18 64.25 0.91 60.9-0.33 63.26-0.41 70.69-2.5zm204.81 14.74v-166.01l135.25 0.26 135.25 0.25v23.5 23.5l-216 1v44 44l205 1v23.5 23.5l-205 1-0.26 49.24-0.26 49.25 108.26 0.25 108.26 0.26v23.5 23.5l-135.25 0.25-135.25 0.26zm417.25 0.27 0.25-165.77 98 0.02c88.67 0.02 99.07 0.19 109.27 1.79 38.42 6.02 63.33 22.13 75.74 49 7.31 15.83 10.44 36.71 8.54 57.07-3.51 37.8-19.62 63.94-49.38 80.17-4.87 2.65-6.71 4.19-6.4 5.34 0.23 0.88 16.47 31.95 36.08 69.03 19.61 37.09 35.65 67.81 35.65 68.27s-13.57 0.72-30.16 0.57l-30.16-0.26-34.2-64.5-34.21-64.5-125.25-0.52-0.52 129.52-26.75 0.27-26.75 0.26zm200.94-15c9.2-2.58 12.59-4.22 19.65-9.48 10.66-7.96 16.86-21.63 17.82-39.29 1.45-26.73-9.69-44.73-32.04-51.76-7.1-2.23-7.32-2.24-79.62-2.24h-72.5l-0.26 51.5c-0.14 28.32-0.03 52.08 0.24 52.8 0.4 1.05 13.6 1.24 69.76 0.96 67.38-0.32 69.47-0.39 76.95-2.49zm228.27 179.48c-0.26-0.69-0.36-75.28-0.22-165.75l0.26-164.5 135.25-0.25 135.25-0.26v24 24l-108.25 0.25-108.25 0.26v44 44l102.77 0.25 102.77 0.26-0.27 23.74-0.27 23.75-205 1v49 49l108.25 0.25 108.25 0.26v23.99 24h-135.03c-107.1 0-135.13-0.26-135.51-1.25z" fill="#000000"/>
  </g>
</svg>